<svg xmlns="http://www.w3.org/2000/svg" viewBox="-45 -49.6995 837.7999877929688 763.8035007629394"> <svg xmlns="http://www.w3.org/2000/svg" xmlns:xlink="http://www.w3.org/1999/xlink" xmlnsSerif="http://www.serif.com/" viewBox="0 0.0003322919365018606 562.0009765625 892.5247802734375" version="1.1" xml:space="preserve" height="488.16350678579255" width="307.3845471009936" y="20.3005" x="220.208" preserveAspectRatio="xMinYMin" fill-rule="evenodd" clip-rule="evenodd" stroke-linejoin="round" stroke-miterlimit="2" style="overflow: visible;"><path d="M150.253,248.935c-0,0 -107.257,43.411 -150.253,-72.414c0,0 106.438,-93.056 161.973,64.201c-49.357,-41.659 -72.575,-45.903 -103.281,-46.187c0,-0 61.193,11.211 91.561,54.4Z" style="fill: #344000;"></path><path d="M151.942,743.151c-0,0 -112.355,-27.656 -138.377,93.12c-0,0 118.631,76.911 151.149,-86.664c-42.904,48.278 -65.279,55.793 -95.629,60.457c-0,0 58.966,-19.831 82.857,-66.913Z" style="fill: #4e6000;"></path><path d="M158.574,711.059c0,-0 -14.682,-114.774 -136.722,-95.533c-0,-0 -29.003,138.374 135.302,109.773c-60.494,-22.628 -75.565,-40.793 -90.852,-67.424c0,-0 39.745,47.86 92.272,53.184Z" style="fill: #2a3400;"></path><path d="M396.07,499.322c0,0 68.675,-93.124 165.931,-16.931c-0,0 -41.995,135 -171.619,30.063c63.859,9.668 85.865,1.133 112.179,-14.695c-0,-0 -58.011,22.472 -106.491,1.563Z" style="fill: #2a3400;"></path><path d="M291.034,507.656c0,-0 -68.675,-93.125 -165.93,-16.932c-0,0 41.995,135.001 171.619,30.064c-63.86,9.667 -85.866,1.132 -112.179,-14.696c-0,0 58.011,22.473 106.49,1.564Z" style="fill: #566a00;"></path><path d="M426.71,560.617c0,0 85.673,8.638 73.789,99.808c0,-0 -102.361,24.329 -84.354,-98.468c18.037,44.552 31.85,55.402 51.966,66.244c-0,-0 -36.395,-28.614 -41.401,-67.584Z" style="fill: #596e00;"></path><path d="M426.274,441.935c-0,-0 -35.219,-78.576 49.74,-113.721c0,0 72.117,76.608 -43.312,122.212c29.631,-37.845 32.151,-55.228 31.522,-78.071c0,0 -6.663,45.814 -37.95,69.58Z" style="fill: #596e00;"></path><path d="M143.136,152.193c-0,-0 -109.996,-35.91 -68.248,-152.19c0,-0 141.358,-2.585 82.503,153.461c-10.903,-63.661 -25.925,-81.867 -49.224,-101.868c-0,-0 39.573,48.002 34.969,100.597Z" style="fill: #435300;"></path><path d="M332.879,288.085c-5.049,-10.665 -9.041,-20.874 -11.719,-30.795c-9.85,-36.486 2.725,-63.087 3.772,-65.878c0.045,-0.148 0.07,-0.223 0.07,-0.223c-0.002,0.034 -0.026,0.108 -0.07,0.223c-1.157,3.85 -15.594,57.48 49.664,143.522c1.772,2.337 3.505,4.749 5.297,7.166c27.548,37.327 32.472,74.081 19.746,111.366c-14.247,41.741 -52.214,84.231 -108.496,129.502c-7.014,5.477 -13.553,10.941 -19.654,16.382c6.084,0.394 13.331,0.832 21.189,1.245c5.07,0.266 10.378,0.504 15.8,0.644c3.484,0.089 7.009,0.146 10.534,0.112c9.01,-0.089 18.006,-0.408 26.333,-0.797c22.19,-1.036 39.5,-2.495 39.5,-2.495c3.461,-0 6.271,2.81 6.271,6.271c0,3.461 -2.81,6.271 -6.271,6.271c0,0 -17.31,-1.459 -39.5,-2.495c-8.327,-0.389 -17.323,-0.709 -26.333,-0.797c-3.525,-0.035 -7.05,0.023 -10.534,0.112c-5.422,0.139 -10.73,0.378 -15.8,0.644c-13.775,0.723 -25.672,1.526 -32.712,2.031c-7.814,7.629 -14.795,15.195 -21.04,22.664c-7.922,9.475 -14.63,18.767 -20.054,28.142c-0.879,1.519 -1.728,3.036 -2.548,4.552c5.512,0.404 20.308,1.448 38.188,2.363c5.197,0.266 10.641,0.504 16.2,0.644c3.571,0.089 7.186,0.147 10.8,0.112c9.237,-0.088 18.461,-0.408 27,-0.797c22.748,-1.036 40.5,-2.495 40.5,-2.495c3.461,-0 6.271,2.81 6.271,6.271c-0,3.461 -2.81,6.271 -6.271,6.271c-0,0 -17.752,-1.459 -40.5,-2.495c-8.539,-0.389 -17.763,-0.708 -27,-0.797c-3.614,-0.034 -7.229,0.023 -10.8,0.112c-5.559,0.14 -11.003,0.378 -16.2,0.644c-12.847,0.658 -30.747,1.381 -43.895,1.887c-2.066,4.785 -3.807,9.597 -5.198,14.479c-3.74,13.136 -5.465,26.434 -4.839,40.444c0.399,8.922 1.449,17.954 3.283,27.386c30.883,7.86 96.436,35.773 85.185,130.113c-0,-0 -137.184,34.193 -114.791,-131.072c24.89,59.598 43.609,73.975 70.798,88.248c-0,-0 -7.514,-5.776 -17.108,-15.926l0.298,0.631c-1.102,-1.286 -2.188,-2.562 -3.255,-3.83c-5.446,-6.024 -11.351,-13.315 -16.828,-21.644c-9.427,-13.447 -16.781,-26.593 -22.479,-39.806c-5.694,-13.201 -9.186,-26.255 -11.095,-39.246c-2.086,-14.192 -1.671,-28.194 0.745,-42.149c2.337,-13.497 6.939,-26.84 13.692,-40.112c5.892,-11.579 13.579,-23.069 23.12,-34.4c15.085,-17.917 35.005,-35.395 59.452,-53.22c53.99,-38.189 91.526,-74.31 107.164,-111.541c10.692,-25.454 10.849,-51.184 -1.175,-78.152c-2.699,-0.204 -19.322,-1.442 -40.116,-2.506c-5.198,-0.266 -10.641,-0.505 -16.2,-0.644c-3.572,-0.09 -7.186,-0.147 -10.8,-0.112c-9.238,0.088 -18.462,0.408 -27,0.796c-22.748,1.037 -40.5,2.496 -40.5,2.496c-3.461,-0 -6.271,-2.81 -6.271,-6.272c-0,-3.461 2.81,-6.271 6.271,-6.271c0,0 17.752,1.459 40.5,2.496c8.538,0.388 17.762,0.708 27,0.796c3.614,0.035 7.228,-0.022 10.8,-0.112c5.559,-0.139 11.002,-0.378 16.2,-0.644c14.416,-0.737 26.827,-1.559 33.984,-2.061c-1.01,-1.765 -2.074,-3.539 -3.19,-5.318c-11.197,-17.94 -21.204,-34.396 -29.326,-49.838c-0.045,0.001 -0.09,0.002 -0.135,0.002c0,-0 -17.313,-1.372 -39.5,-2.537c-5.069,-0.266 -10.378,-0.504 -15.8,-0.643c-3.483,-0.09 -7.008,-0.147 -10.533,-0.113c-9.01,0.089 -18.006,0.408 -26.333,0.797c-22.19,1.037 -39.5,2.496 -39.5,2.496c-3.462,-0 -6.272,-2.811 -6.272,-6.272c0,-3.461 2.81,-6.271 6.272,-6.271c-0,-0 17.31,1.459 39.5,2.495c8.327,0.389 17.323,0.709 26.333,0.797c3.525,0.035 7.05,-0.023 10.533,-0.112c5.422,-0.139 10.731,-0.378 15.8,-0.644c14.355,-0.753 26.67,-1.593 33.576,-2.093Z" style="fill: url(#_Linear1);"></path><path d="M359.633,566.658c-2.129,-4.703 -4.568,-9.386 -7.29,-14.089c-5.424,-9.376 -12.132,-18.667 -20.054,-28.142c-13.585,-16.248 -30.655,-32.954 -52.217,-49.793c-56.282,-45.27 -94.249,-87.76 -108.496,-129.502c-12.726,-37.284 -7.802,-74.039 19.747,-111.365c1.791,-2.417 3.557,-4.804 5.296,-7.166c-37.25,-32.033 -27.275,-63.759 -2.955,-95.124c50.348,-64.93 26.389,-105.903 26.389,-105.903c60.417,15.625 94.792,91.667 72.917,155.903c-15.786,46.356 -72.917,50 -72.917,50c55.209,-71.875 31.994,-125.288 31.994,-125.288c0.048,0.849 0.088,1.692 0.12,2.524c2.456,13.169 1.475,26.428 -2.112,40.244c-7.158,27.567 -24.932,57.207 -47.104,92.73c-2.808,4.478 -5.284,8.917 -7.436,13.32c4.871,0.472 11.33,1.04 18.538,1.519c5.85,0.389 12.165,0.709 18.5,0.797c2.477,0.035 4.954,-0.023 7.4,-0.112c3.815,-0.14 7.538,-0.378 11.1,-0.644c15.631,-1.167 27.75,-2.536 27.75,-2.536c3.462,-0 6.272,2.81 6.272,6.271c-0,3.461 -2.81,6.271 -6.272,6.271c0,0 -12.119,-1.368 -27.75,-2.536c-3.562,-0.266 -7.285,-0.504 -11.1,-0.644c-2.446,-0.089 -4.923,-0.146 -7.4,-0.112c-6.335,0.089 -12.65,0.408 -18.5,0.797c-9.908,0.659 -18.402,1.485 -23.295,2.001c-7.084,19.128 -8.017,37.666 -3.4,55.967c8.109,0.504 19.735,1.161 32.862,1.702c9.435,0.389 19.628,0.709 29.833,0.797c3.994,0.035 7.987,-0.022 11.934,-0.112c6.141,-0.139 12.157,-0.378 17.9,-0.644c25.12,-1.163 44.75,-2.536 44.75,-2.536c3.461,0 6.271,2.81 6.271,6.271c-0,3.462 -2.81,6.272 -6.271,6.272c-0,-0 -19.63,-1.373 -44.75,-2.536c-5.743,-0.266 -11.759,-0.505 -17.9,-0.644c-3.947,-0.09 -7.94,-0.147 -11.934,-0.113c-10.205,0.089 -20.398,0.408 -29.833,0.797c-11.411,0.471 -21.688,1.029 -29.507,1.497c0.544,1.466 1.125,2.933 1.741,4.398c7.281,17.335 19.309,34.429 35.539,51.608c6.496,0.49 19.918,1.435 35.81,2.168c8.433,0.389 17.543,0.708 26.667,0.796c3.569,0.035 7.139,-0.022 10.667,-0.112c5.49,-0.139 10.866,-0.378 16,-0.644c22.466,-1.164 40,-2.536 40,-2.536c3.461,0 6.271,2.81 6.271,6.272c-0,3.461 -2.81,6.271 -6.271,6.271c-0,-0 -17.534,-1.372 -40,-2.536c-5.134,-0.266 -10.51,-0.505 -16,-0.644c-3.528,-0.09 -7.098,-0.147 -10.667,-0.112c-9.124,0.088 -18.234,0.408 -26.667,0.797c-9.43,0.434 -17.99,0.944 -24.749,1.389c7.933,7.587 16.659,15.204 26.127,22.876c5.632,0.513 14.112,1.218 23.789,1.794c6.535,0.389 13.592,0.708 20.667,0.797c2.766,0.034 5.533,-0.023 8.266,-0.113c4.259,-0.139 8.421,-0.377 12.4,-0.643c17.442,-1.167 31,-2.537 31,-2.537c3.462,0 6.272,2.81 6.272,6.272c-0,3.461 -2.81,6.271 -6.272,6.271c0,-0 -13.558,-1.37 -31,-2.536c-3.979,-0.266 -8.141,-0.505 -12.4,-0.644c-2.733,-0.089 -5.5,-0.147 -8.266,-0.112c-7.075,0.088 -14.132,0.408 -20.667,0.797c-3.885,0.231 -7.577,0.483 -10.969,0.735c6.874,5.253 14.085,10.54 21.617,15.868c4.469,3.258 8.786,6.505 12.952,9.746c2.691,0.251 5.495,0.442 8.317,0.507c1.495,0.034 2.991,-0.023 4.466,-0.113c2.314,-0.14 4.548,-0.377 6.7,-0.643c9.525,-1.178 16.75,-2.536 16.75,-2.536c3.462,-0 6.272,2.81 6.272,6.271c-0,3.461 -2.81,6.271 -6.272,6.271c0,0 -7.225,-1.358 -16.75,-2.536c-2.152,-0.266 -4.386,-0.504 -6.7,-0.644c-1.475,-0.089 -2.971,-0.147 -4.466,-0.112c-0.066,0.001 -0.131,0.003 -0.196,0.005c15.061,12.297 27.889,24.544 38.379,37.004c9.541,11.331 17.228,22.821 23.12,34.4c6.753,13.272 11.355,26.615 13.692,40.112c2.416,13.955 2.831,27.957 0.745,42.149c-1.909,12.991 -5.401,26.044 -11.095,39.245c-5.874,13.62 -13.507,27.17 -23.355,41.049c-5.767,8.127 -12.131,15.979 -19.207,24.232c2.123,-4.475 4.108,-8.879 5.963,-13.223c-8.221,-0.331 -14.105,-0.675 -20.755,-0.982c-8.433,-0.389 -17.542,-0.708 -26.666,-0.797c-3.57,-0.034 -7.139,0.023 -10.667,0.112c-5.491,0.14 -10.867,0.378 -16,0.644c-22.466,1.164 -40,2.536 -40,2.536c-3.461,0 -6.271,-2.81 -6.271,-6.271c-0,-3.461 2.81,-6.271 6.271,-6.271c-0,-0 17.534,1.372 40,2.536c5.133,0.266 10.509,0.505 16,0.644c3.527,0.089 7.097,0.147 10.667,0.112c9.124,-0.088 18.233,-0.408 26.666,-0.797c6.867,-0.316 15.705,-0.673 24.666,-1.014c6.618,-16.9 11.249,-32.863 14.325,-48.292c0.566,-2.838 1.061,-5.639 1.488,-8.412c-5.842,-0.52 -15.586,-1.316 -26.842,-1.952c-6.882,-0.389 -14.317,-0.709 -21.762,-0.797c-2.913,-0.034 -5.826,0.023 -8.704,0.112c-4.48,0.14 -8.869,0.378 -13.058,0.644c-18.324,1.164 -32.643,2.536 -32.643,2.536c-2.524,0 -4.574,-2.81 -4.574,-6.271c-0,-3.461 2.05,-6.271 4.574,-6.271c0,-0 14.319,1.372 32.643,2.536c4.189,0.266 8.578,0.504 13.058,0.644c2.878,0.089 5.791,0.146 8.704,0.112c7.445,-0.088 14.88,-0.408 21.762,-0.797c12.222,-0.691 22.661,-1.57 28.259,-2.079c0.252,-2.79 0.437,-5.561 0.561,-8.322c0.626,-14.01 -1.099,-27.309 -4.839,-40.444c-0.842,-2.955 -1.812,-5.883 -2.904,-8.794c-15.167,1.15 -26.797,2.464 -26.797,2.464c-3.461,0 -6.271,-2.81 -6.271,-6.271c-0,-3.461 2.81,-6.271 6.271,-6.271c-0,-0 9.994,1.128 23.538,2.21Z" style="fill: url(#_Linear2);"></path><linearGradient id="_Linear1" x1="0" y1="0" x2="1" y2="0" gradientUnits="userSpaceOnUse" gradientTransform="matrix(4.94961e-14,808.333,-808.333,4.94961e-14,326.396,201.484)" style=""><stop offset="0" style="stop-color: #344000; stop-opacity: 1;"></stop><stop offset="1" style="stop-color: #8eaf00; stop-opacity: 1;"></stop></linearGradient><linearGradient id="_Linear2" x1="0" y1="0" x2="1" y2="0" gradientUnits="userSpaceOnUse" gradientTransform="matrix(3.81001e-14,622.222,-622.222,3.81001e-14,266.674,132.04)" style=""><stop offset="0" style="stop-color: #667e00; stop-opacity: 1;"></stop><stop offset="1" style="stop-color: #1c2200; stop-opacity: 1;"></stop></linearGradient></svg> <svg y="621.404" viewBox="1.9300000667572021 7.159999847412109 618.7000122070312 22.700000762939453" x="53.145809765625" height="22.700000762939453" width="618.7000122070312" style="overflow: visible;"><g fill="#596e00" fill-opacity="1" style=""><path d="M7.36 8.84Q10.21 8.84 12.30 9.90Q14.39 10.96 15.51 12.94Q16.62 14.92 16.62 17.60L16.62 17.60Q16.62 20.28 15.51 22.24Q14.39 24.21 12.30 25.25Q10.21 26.28 7.36 26.28L7.36 26.28L1.93 26.28L1.93 8.84L7.36 8.84ZM7.36 24.41Q10.74 24.41 12.52 22.62Q14.29 20.83 14.29 17.60L14.29 17.60Q14.29 14.34 12.50 12.52Q10.71 10.69 7.36 10.69L7.36 10.69L4.21 10.69L4.21 24.41L7.36 24.41ZM25.53 19.38Q25.53 17.27 26.38 15.68Q27.24 14.09 28.72 13.22Q30.21 12.34 32.04 12.34L32.04 12.34Q33.84 12.34 35.17 13.12Q36.50 13.89 37.15 15.07L37.15 15.07L37.15 12.57L39.45 12.57L39.45 26.28L37.15 26.28L37.15 23.73Q36.47 24.93 35.13 25.72Q33.79 26.51 32.02 26.51L32.02 26.51Q30.19 26.51 28.71 25.61Q27.24 24.71 26.38 23.08Q25.53 21.45 25.53 19.38L25.53 19.38ZM37.15 19.40Q37.15 17.85 36.52 16.70Q35.90 15.55 34.83 14.93Q33.77 14.32 32.49 14.32L32.49 14.32Q31.22 14.32 30.16 14.92Q29.11 15.52 28.49 16.67Q27.86 17.82 27.86 19.38L27.86 19.38Q27.86 20.95 28.49 22.12Q29.11 23.28 30.16 23.89Q31.22 24.51 32.49 24.51L32.49 24.51Q33.77 24.51 34.83 23.89Q35.90 23.28 36.52 22.12Q37.15 20.95 37.15 19.40L37.15 19.40ZM52.34 14.79Q52.94 13.62 54.06 12.97Q55.17 12.32 56.77 12.32L56.77 12.32L56.77 14.67L56.17 14.67Q52.34 14.67 52.34 18.82L52.34 18.82L52.34 26.28L50.06 26.28L50.06 12.57L52.34 12.57L52.34 14.79ZM78.68 18.90Q78.68 19.55 78.60 20.28L78.60 20.28L67.64 20.28Q67.76 22.30 69.03 23.44Q70.29 24.58 72.09 24.58L72.09 24.58Q73.57 24.58 74.56 23.89Q75.55 23.20 75.95 22.05L75.95 22.05L78.40 22.05Q77.85 24.03 76.20 25.27Q74.55 26.51 72.09 26.51L72.09 26.51Q70.14 26.51 68.60 25.63Q67.06 24.76 66.19 23.14Q65.31 21.53 65.31 19.40L65.31 19.40Q65.31 17.27 66.16 15.67Q67.01 14.07 68.55 13.20Q70.09 12.34 72.09 12.34L72.09 12.34Q74.05 12.34 75.55 13.19Q77.05 14.04 77.86 15.53Q78.68 17.02 78.68 18.90L78.68 18.90ZM76.32 18.42Q76.32 17.12 75.75 16.18Q75.17 15.24 74.18 14.76Q73.19 14.27 71.99 14.27L71.99 14.27Q70.27 14.27 69.05 15.37Q67.84 16.47 67.66 18.42L67.66 18.42L76.32 18.42ZM108.24 14.44L104.66 14.44L104.66 22.53Q104.66 23.53 105.09 23.94Q105.51 24.36 106.56 24.36L106.56 24.36L108.24 24.36L108.24 26.28L106.19 26.28Q104.28 26.28 103.33 25.41Q102.38 24.53 102.38 22.53L102.38 22.53L102.38 14.44L100.61 14.44L100.61 12.57L102.38 12.57L102.38 9.11L104.66 9.11L104.66 12.57L108.24 12.57L108.24 14.44ZM123.73 26.51Q121.81 26.51 120.24 25.63Q118.68 24.76 117.79 23.14Q116.90 21.53 116.90 19.40L116.90 19.40Q116.90 17.30 117.81 15.68Q118.73 14.07 120.31 13.20Q121.88 12.34 123.84 12.34L123.84 12.34Q125.79 12.34 127.36 13.20Q128.94 14.07 129.86 15.67Q130.77 17.27 130.77 19.40L130.77 19.40Q130.77 21.53 129.83 23.14Q128.89 24.76 127.29 25.63Q125.69 26.51 123.73 26.51L123.73 26.51ZM123.73 24.51Q124.96 24.51 126.04 23.93Q127.11 23.36 127.78 22.20Q128.44 21.05 128.44 19.40L128.44 19.40Q128.44 17.75 127.79 16.60Q127.14 15.44 126.09 14.88Q125.04 14.32 123.81 14.32L123.81 14.32Q122.56 14.32 121.52 14.88Q120.48 15.44 119.85 16.60Q119.23 17.75 119.23 19.40L119.23 19.40Q119.23 21.08 119.84 22.23Q120.46 23.38 121.48 23.94Q122.51 24.51 123.73 24.51L123.73 24.51ZM153.12 19.38Q153.12 17.27 153.97 15.68Q154.83 14.09 156.31 13.22Q157.80 12.34 159.66 12.34L159.66 12.34Q161.26 12.34 162.64 13.08Q164.01 13.82 164.74 15.02L164.74 15.02L164.74 7.76L167.04 7.76L167.04 26.28L164.74 26.28L164.74 23.71Q164.06 24.93 162.74 25.72Q161.41 26.51 159.63 26.51L159.63 26.51Q157.80 26.51 156.31 25.61Q154.83 24.71 153.97 23.08Q153.12 21.45 153.12 19.38L153.12 19.38ZM164.74 19.40Q164.74 17.85 164.11 16.70Q163.49 15.55 162.42 14.93Q161.36 14.32 160.08 14.32L160.08 14.32Q158.81 14.32 157.75 14.92Q156.70 15.52 156.08 16.67Q155.45 17.82 155.45 19.38L155.45 19.38Q155.45 20.95 156.08 22.12Q156.70 23.28 157.75 23.89Q158.81 24.51 160.08 24.51L160.08 24.51Q161.36 24.51 162.42 23.89Q163.49 23.28 164.11 22.12Q164.74 20.95 164.74 19.40L164.74 19.40ZM190.17 18.90Q190.17 19.55 190.10 20.28L190.10 20.28L179.13 20.28Q179.26 22.30 180.52 23.44Q181.78 24.58 183.59 24.58L183.59 24.58Q185.06 24.58 186.05 23.89Q187.04 23.20 187.44 22.05L187.44 22.05L189.90 22.05Q189.34 24.03 187.69 25.27Q186.04 26.51 183.59 26.51L183.59 26.51Q181.63 26.51 180.10 25.63Q178.56 24.76 177.68 23.14Q176.80 21.53 176.80 19.40L176.80 19.40Q176.80 17.27 177.65 15.67Q178.51 14.07 180.05 13.20Q181.58 12.34 183.59 12.34L183.59 12.34Q185.54 12.34 187.04 13.19Q188.54 14.04 189.36 15.53Q190.17 17.02 190.17 18.90L190.17 18.90ZM187.82 18.42Q187.82 17.12 187.24 16.18Q186.67 15.24 185.68 14.76Q184.69 14.27 183.49 14.27L183.49 14.27Q181.76 14.27 180.55 15.37Q179.33 16.47 179.16 18.42L179.16 18.42L187.82 18.42ZM205.52 12.57L205.52 14.44L202.64 14.44L202.64 26.28L200.36 26.28L200.36 14.44L198.58 14.44L198.58 12.57L200.36 12.57L200.36 11.59Q200.36 9.29 201.55 8.22Q202.74 7.16 205.37 7.16L205.37 7.16L205.37 9.06Q203.86 9.06 203.25 9.65Q202.64 10.24 202.64 11.59L202.64 11.59L202.64 12.57L205.52 12.57ZM216.10 10.34Q215.45 10.34 215.00 9.89Q214.55 9.44 214.55 8.79L214.55 8.79Q214.55 8.14 215.00 7.68Q215.45 7.23 216.10 7.23L216.10 7.23Q216.73 7.23 217.17 7.68Q217.61 8.14 217.61 8.79L217.61 8.79Q217.61 9.44 217.17 9.89Q216.73 10.34 216.10 10.34L216.10 10.34ZM214.93 12.57L217.21 12.57L217.21 26.28L214.93 26.28L214.93 12.57ZM234.53 12.32Q237.03 12.32 238.58 13.83Q240.14 15.34 240.14 18.20L240.14 18.20L240.14 26.28L237.88 26.28L237.88 18.52Q237.88 16.47 236.86 15.38Q235.83 14.29 234.05 14.29L234.05 14.29Q232.25 14.29 231.19 15.42Q230.12 16.55 230.12 18.70L230.12 18.70L230.12 26.28L227.84 26.28L227.84 12.57L230.12 12.57L230.12 14.52Q230.80 13.47 231.96 12.89Q233.13 12.32 234.53 12.32L234.53 12.32ZM263.14 18.90Q263.14 19.55 263.07 20.28L263.07 20.28L252.10 20.28Q252.23 22.30 253.49 23.44Q254.75 24.58 256.56 24.58L256.56 24.58Q258.03 24.58 259.02 23.89Q260.01 23.20 260.41 22.05L260.41 22.05L262.86 22.05Q262.31 24.03 260.66 25.27Q259.01 26.51 256.56 26.51L256.56 26.51Q254.60 26.51 253.06 25.63Q251.53 24.76 250.65 23.14Q249.77 21.53 249.77 19.40L249.77 19.40Q249.77 17.27 250.62 15.67Q251.48 14.07 253.01 13.20Q254.55 12.34 256.56 12.34L256.56 12.34Q258.51 12.34 260.01 13.19Q261.51 14.04 262.33 15.53Q263.14 17.02 263.14 18.90L263.14 18.90ZM260.79 18.42Q260.79 17.12 260.21 16.18Q259.64 15.24 258.65 14.76Q257.66 14.27 256.46 14.27L256.46 14.27Q254.73 14.27 253.52 15.37Q252.30 16.47 252.13 18.42L252.13 18.42L260.79 18.42ZM272.75 23.13L275.26 23.13L272.45 29.86L270.93 29.86L272.75 23.13ZM297.21 19.38Q297.21 17.27 298.06 15.68Q298.91 14.09 300.40 13.22Q301.89 12.34 303.74 12.34L303.74 12.34Q305.34 12.34 306.72 13.08Q308.10 13.82 308.82 15.02L308.82 15.02L308.82 7.76L311.13 7.76L311.13 26.28L308.82 26.28L308.82 23.71Q308.15 24.93 306.82 25.72Q305.49 26.51 303.72 26.51L303.72 26.51Q301.89 26.51 300.40 25.61Q298.91 24.71 298.06 23.08Q297.21 21.45 297.21 19.38L297.21 19.38ZM308.82 19.40Q308.82 17.85 308.20 16.70Q307.57 15.55 306.51 14.93Q305.44 14.32 304.17 14.32L304.17 14.32Q302.89 14.32 301.84 14.92Q300.79 15.52 300.16 16.67Q299.54 17.82 299.54 19.38L299.54 19.38Q299.54 20.95 300.16 22.12Q300.79 23.28 301.84 23.89Q302.89 24.51 304.17 24.51L304.17 24.51Q305.44 24.51 306.51 23.89Q307.57 23.28 308.20 22.12Q308.82 20.95 308.82 19.40L308.82 19.40ZM320.89 19.38Q320.89 17.27 321.74 15.68Q322.59 14.09 324.08 13.22Q325.57 12.34 327.40 12.34L327.40 12.34Q329.20 12.34 330.53 13.12Q331.85 13.89 332.50 15.07L332.50 15.07L332.50 12.57L334.81 12.57L334.81 26.28L332.50 26.28L332.50 23.73Q331.83 24.93 330.49 25.72Q329.15 26.51 327.37 26.51L327.37 26.51Q325.55 26.51 324.07 25.61Q322.59 24.71 321.74 23.08Q320.89 21.45 320.89 19.38L320.89 19.38ZM332.50 19.40Q332.50 17.85 331.88 16.70Q331.25 15.55 330.19 14.93Q329.13 14.32 327.85 14.32L327.85 14.32Q326.57 14.32 325.52 14.92Q324.47 15.52 323.84 16.67Q323.22 17.82 323.22 19.38L323.22 19.38Q323.22 20.95 323.84 22.12Q324.47 23.28 325.52 23.89Q326.57 24.51 327.85 24.51L327.85 24.51Q329.13 24.51 330.19 23.89Q331.25 23.28 331.88 22.12Q332.50 20.95 332.50 19.40L332.50 19.40ZM347.70 14.79Q348.30 13.62 349.41 12.97Q350.53 12.32 352.13 12.32L352.13 12.32L352.13 14.67L351.53 14.67Q347.70 14.67 347.70 18.82L347.70 18.82L347.70 26.28L345.42 26.28L345.42 12.57L347.70 12.57L347.70 14.79ZM374.03 18.90Q374.03 19.55 373.96 20.28L373.96 20.28L362.99 20.28Q363.12 22.30 364.38 23.44Q365.65 24.58 367.45 24.58L367.45 24.58Q368.93 24.58 369.92 23.89Q370.90 23.20 371.30 22.05L371.30 22.05L373.76 22.05Q373.21 24.03 371.56 25.27Q369.90 26.51 367.45 26.51L367.45 26.51Q365.50 26.51 363.96 25.63Q362.42 24.76 361.54 23.14Q360.67 21.53 360.67 19.40L360.67 19.40Q360.67 17.27 361.52 15.67Q362.37 14.07 363.91 13.20Q365.45 12.34 367.45 12.34L367.45 12.34Q369.40 12.34 370.90 13.19Q372.41 14.04 373.22 15.53Q374.03 17.02 374.03 18.90L374.03 18.90ZM371.68 18.42Q371.68 17.12 371.10 16.18Q370.53 15.24 369.54 14.76Q368.55 14.27 367.35 14.27L367.35 14.27Q365.62 14.27 364.41 15.37Q363.19 16.47 363.02 18.42L363.02 18.42L371.68 18.42ZM403.60 14.44L400.02 14.44L400.02 22.53Q400.02 23.53 400.44 23.94Q400.87 24.36 401.92 24.36L401.92 24.36L403.60 24.36L403.60 26.28L401.54 26.28Q399.64 26.28 398.69 25.41Q397.74 24.53 397.74 22.53L397.74 22.53L397.74 14.44L395.96 14.44L395.96 12.57L397.74 12.57L397.74 9.11L400.02 9.11L400.02 12.57L403.60 12.57L403.60 14.44ZM419.09 26.51Q417.16 26.51 415.60 25.63Q414.04 24.76 413.15 23.14Q412.26 21.53 412.26 19.40L412.26 19.40Q412.26 17.30 413.17 15.68Q414.09 14.07 415.66 13.20Q417.24 12.34 419.19 12.34L419.19 12.34Q421.14 12.34 422.72 13.20Q424.30 14.07 425.21 15.67Q426.13 17.27 426.13 19.40L426.13 19.40Q426.13 21.53 425.19 23.14Q424.25 24.76 422.65 25.63Q421.04 26.51 419.09 26.51L419.09 26.51ZM419.09 24.51Q420.32 24.51 421.39 23.93Q422.47 23.36 423.13 22.20Q423.80 21.05 423.80 19.40L423.80 19.40Q423.80 17.75 423.15 16.60Q422.50 15.44 421.44 14.88Q420.39 14.32 419.17 14.32L419.17 14.32Q417.92 14.32 416.88 14.88Q415.84 15.44 415.21 16.60Q414.59 17.75 414.59 19.40L414.59 19.40Q414.59 21.08 415.20 22.23Q415.81 23.38 416.84 23.94Q417.87 24.51 419.09 24.51L419.09 24.51ZM461.25 26.28L458.52 26.28L454.36 19.15L451.61 19.15L451.61 26.28L449.33 26.28L449.33 8.84L454.96 8.84Q456.94 8.84 458.30 9.51Q459.67 10.19 460.35 11.34Q461.02 12.49 461.02 13.97L461.02 13.97Q461.02 15.77 459.98 17.15Q458.94 18.52 456.87 18.97L456.87 18.97L461.25 26.28ZM451.61 10.71L451.61 17.32L454.96 17.32Q456.82 17.32 457.74 16.41Q458.67 15.50 458.67 13.97L458.67 13.97Q458.67 12.42 457.75 11.56Q456.84 10.71 454.96 10.71L454.96 10.71L451.61 10.71ZM480.70 10.69L473.59 10.69L473.59 16.52L479.95 16.52L479.95 18.40L473.59 18.40L473.59 24.41L480.70 24.41L480.70 26.28L471.31 26.28L471.31 8.81L480.70 8.81L480.70 10.69ZM490.43 16.15L500.42 16.15L500.42 18.07L490.43 18.07L490.43 16.15ZM510.61 19.38Q510.61 17.27 511.46 15.68Q512.31 14.09 513.80 13.22Q515.29 12.34 517.14 12.34L517.14 12.34Q518.75 12.34 520.12 13.08Q521.50 13.82 522.23 15.02L522.23 15.02L522.23 7.76L524.53 7.76L524.53 26.28L522.23 26.28L522.23 23.71Q521.55 24.93 520.22 25.72Q518.90 26.51 517.12 26.51L517.12 26.51Q515.29 26.51 513.80 25.61Q512.31 24.71 511.46 23.08Q510.61 21.45 510.61 19.38L510.61 19.38ZM522.23 19.40Q522.23 17.85 521.60 16.70Q520.97 15.55 519.91 14.93Q518.85 14.32 517.57 14.32L517.57 14.32Q516.29 14.32 515.24 14.92Q514.19 15.52 513.56 16.67Q512.94 17.82 512.94 19.38L512.94 19.38Q512.94 20.95 513.56 22.12Q514.19 23.28 515.24 23.89Q516.29 24.51 517.57 24.51L517.57 24.51Q518.85 24.51 519.91 23.89Q520.97 23.28 521.60 22.12Q522.23 20.95 522.23 19.40L522.23 19.40ZM547.66 18.90Q547.66 19.55 547.58 20.28L547.58 20.28L536.62 20.28Q536.74 22.30 538.01 23.44Q539.27 24.58 541.07 24.58L541.07 24.58Q542.55 24.58 543.54 23.89Q544.53 23.20 544.93 22.05L544.93 22.05L547.38 22.05Q546.83 24.03 545.18 25.27Q543.53 26.51 541.07 26.51L541.07 26.51Q539.12 26.51 537.58 25.63Q536.04 24.76 535.17 23.14Q534.29 21.53 534.29 19.40L534.29 19.40Q534.29 17.27 535.14 15.67Q535.99 14.07 537.53 13.20Q539.07 12.34 541.07 12.34L541.07 12.34Q543.03 12.34 544.53 13.19Q546.03 14.04 546.84 15.53Q547.66 17.02 547.66 18.90L547.66 18.90ZM545.30 18.42Q545.30 17.12 544.73 16.18Q544.15 15.24 543.16 14.76Q542.18 14.27 540.97 14.27L540.97 14.27Q539.25 14.27 538.03 15.37Q536.82 16.47 536.64 18.42L536.64 18.42L545.30 18.42ZM563.00 12.57L563.00 14.44L560.12 14.44L560.12 26.28L557.85 26.28L557.85 14.44L556.07 14.44L556.07 12.57L557.85 12.57L557.85 11.59Q557.85 9.29 559.04 8.22Q560.22 7.16 562.85 7.16L562.85 7.16L562.85 9.06Q561.35 9.06 560.74 9.65Q560.12 10.24 560.12 11.59L560.12 11.59L560.12 12.57L563.00 12.57ZM573.59 10.34Q572.94 10.34 572.49 9.89Q572.04 9.44 572.04 8.79L572.04 8.79Q572.04 8.14 572.49 7.68Q572.94 7.23 573.59 7.23L573.59 7.23Q574.22 7.23 574.66 7.68Q575.09 8.14 575.09 8.79L575.09 8.79Q575.09 9.44 574.66 9.89Q574.22 10.34 573.59 10.34L573.59 10.34ZM572.41 12.57L574.69 12.57L574.69 26.28L572.41 26.28L572.41 12.57ZM592.02 12.32Q594.52 12.32 596.07 13.83Q597.62 15.34 597.62 18.20L597.62 18.20L597.62 26.28L595.37 26.28L595.37 18.52Q595.37 16.47 594.34 15.38Q593.32 14.29 591.54 14.29L591.54 14.29Q589.74 14.29 588.67 15.42Q587.61 16.55 587.61 18.70L587.61 18.70L587.61 26.28L585.33 26.28L585.33 12.57L587.61 12.57L587.61 14.52Q588.29 13.47 589.45 12.89Q590.61 12.32 592.02 12.32L592.02 12.32ZM620.63 18.90Q620.63 19.55 620.55 20.28L620.55 20.28L609.59 20.28Q609.71 22.30 610.98 23.44Q612.24 24.58 614.04 24.58L614.04 24.58Q615.52 24.58 616.51 23.89Q617.50 23.20 617.90 22.05L617.90 22.05L620.35 22.05Q619.80 24.03 618.15 25.27Q616.50 26.51 614.04 26.51L614.04 26.51Q612.09 26.51 610.55 25.63Q609.01 24.76 608.14 23.14Q607.26 21.53 607.26 19.40L607.26 19.40Q607.26 17.27 608.11 15.67Q608.96 14.07 610.50 13.20Q612.04 12.34 614.04 12.34L614.04 12.34Q616.00 12.34 617.50 13.19Q619.00 14.04 619.81 15.53Q620.63 17.02 620.63 18.90L620.63 18.90ZM618.27 18.42Q618.27 17.12 617.70 16.18Q617.12 15.24 616.13 14.76Q615.15 14.27 613.94 14.27L613.94 14.27Q612.22 14.27 611.00 15.37Q609.79 16.47 609.61 18.42L609.61 18.42L618.27 18.42Z" transform="translate(0, 0)"></path></g></svg> <svg y="526.928" viewBox="2.6700000762939453 15.270000457763672 697.7999877929688 43.5099983215332" x="25" height="43.5099983215332" width="697.7999877929688" style="overflow: visible;"><g fill="#344000" fill-opacity="1" style=""><path d="M15.39 16.40L15.39 16.40L22.52 16.40Q27.64 16.40 30.82 17.89Q34.00 19.38 35.57 21.96Q37.15 24.55 37.26 27.81L37.26 27.81Q37.38 30.85 36.25 33.34Q35.12 35.84 33.13 37.50Q31.14 39.17 28.65 39.91Q26.15 40.65 23.45 40.27Q20.74 39.88 18.19 38.22L18.19 38.22L18.19 37.62Q18.19 37.62 18.93 37.62Q19.67 37.62 20.83 37.38Q21.99 37.15 23.27 36.49Q24.55 35.84 25.67 34.47Q26.80 33.10 27.40 30.85L27.40 30.85Q27.64 30.07 27.73 29.09Q27.81 28.11 27.75 27.28L27.75 27.28Q27.70 23.48 25.70 21.19Q23.71 18.90 20.09 18.90L20.09 18.90L15.99 18.90Q15.99 18.90 15.84 18.28Q15.69 17.65 15.54 17.03Q15.39 16.40 15.39 16.40ZM7.25 16.40L16.17 16.40L16.17 58.01L7.25 58.01L7.25 16.40ZM7.25 53.67L7.43 53.67L7.43 58.01L2.67 58.01L2.67 57.41Q2.73 57.41 3.06 57.41Q3.39 57.41 3.45 57.41L3.45 57.41Q4.99 57.41 6.09 56.31Q7.19 55.21 7.25 53.67L7.25 53.67ZM7.43 16.40L7.43 20.74L7.25 20.74Q7.25 19.20 6.12 18.10Q4.99 17.00 3.45 17.00L3.45 17.00Q3.39 17.00 3.09 17.00Q2.79 17.00 2.73 17.00L2.73 17.00L2.67 16.40L7.43 16.40ZM15.99 58.01L15.99 53.67L16.17 53.67Q16.23 55.21 17.32 56.31Q18.42 57.41 19.97 57.41L19.97 57.41Q20.03 57.41 20.36 57.41Q20.68 57.41 20.74 57.41L20.74 57.41L20.74 58.01L15.99 58.01ZM53.07 22.35L53.07 22.35L59.43 22.35Q61.93 22.35 64.25 22.85Q66.56 23.36 68.41 24.46Q70.25 25.56 71.35 27.43Q72.45 29.30 72.45 32.09L72.45 32.09Q72.45 34.17 71.59 36.22Q70.72 38.27 68.91 39.76Q67.10 41.25 64.19 41.72L64.19 41.72Q65.91 42.26 67.49 43.80Q69.06 45.35 69.89 46.71L69.89 46.71Q70.19 47.19 70.78 48.23Q71.38 49.27 72.30 50.61Q73.22 51.94 74.23 53.37L74.23 53.37Q75.42 54.98 76.31 55.84Q77.20 56.70 78.15 57.06Q79.10 57.41 80.35 57.41L80.35 57.41L80.35 58.01L75.36 58.01Q72.15 58.01 69.92 57.53Q67.69 57.06 66.09 55.78Q64.48 54.50 63.06 52.30L63.06 52.30Q62.52 51.53 61.93 50.43Q61.33 49.33 60.74 48.20Q60.15 47.07 59.70 46.00Q59.25 44.93 59.08 44.22L59.08 44.22Q58.30 42.32 57.32 41.45Q56.34 40.59 55.51 40.59L55.51 40.59L55.51 40.06Q55.51 40.06 55.93 40.06Q56.34 40.06 57.00 40.06L57.00 40.06Q58.24 40.06 59.46 39.61Q60.68 39.17 61.69 37.89Q62.70 36.61 63.18 34.11L63.18 34.11Q63.30 33.76 63.38 33.10Q63.47 32.45 63.41 31.62L63.41 31.62Q63.30 29.42 62.61 28.11Q61.93 26.80 60.92 26.09Q59.91 25.38 58.87 25.11Q57.83 24.84 57.06 24.84L57.06 24.84Q55.93 24.78 55.00 24.81Q54.08 24.84 53.61 24.78L53.61 24.78Q53.55 24.78 53.43 24.16Q53.31 23.54 53.19 22.94Q53.07 22.35 53.07 22.35ZM45.05 22.35L53.67 22.35L53.67 58.01L45.05 58.01L45.05 22.35ZM45.11 54.26L45.23 54.26L45.47 58.01L41.19 58.01L41.19 57.41Q41.25 57.41 41.51 57.41Q41.78 57.41 41.90 57.41L41.90 57.41Q43.21 57.41 44.13 56.49Q45.05 55.57 45.11 54.26L45.11 54.26ZM45.47 22.35L45.23 26.03L45.11 26.03Q45.05 24.66 44.13 23.80Q43.21 22.94 41.96 22.94L41.96 22.94Q41.78 22.94 41.51 22.94Q41.25 22.94 41.19 22.94L41.19 22.94L41.19 22.35L45.47 22.35ZM53.25 58.01L53.55 54.26L53.67 54.26Q53.67 55.75 54.71 56.58Q55.75 57.41 56.88 57.41L56.88 57.41Q56.88 57.41 57.14 57.41Q57.41 57.41 57.53 57.41L57.53 57.41L57.53 58.01L53.25 58.01ZM99.91 21.57L99.91 21.57Q104.66 21.57 108.52 22.85Q112.39 24.13 115.18 26.57Q117.97 29.00 119.49 32.45Q121.00 35.90 121.00 40.24L121.00 40.24Q121.00 44.51 119.49 47.93Q117.97 51.35 115.18 53.79Q112.39 56.22 108.52 57.50Q104.66 58.78 99.91 58.78L99.91 58.78Q95.21 58.78 91.35 57.50Q87.48 56.22 84.69 53.79Q81.90 51.35 80.41 47.93Q78.93 44.51 78.93 40.24L78.93 40.24Q78.93 35.90 80.41 32.45Q81.90 29.00 84.69 26.57Q87.48 24.13 91.35 22.85Q95.21 21.57 99.91 21.57ZM99.91 56.46L99.91 56.46Q103.53 56.46 106.24 54.47Q108.94 52.48 110.40 48.85Q111.85 45.23 111.85 40.24L111.85 40.24Q111.85 35.18 110.40 31.53Q108.94 27.87 106.24 25.88Q103.53 23.89 99.91 23.89L99.91 23.89Q96.34 23.89 93.67 25.88Q90.99 27.87 89.51 31.53Q88.02 35.18 88.02 40.24L88.02 40.24Q88.02 45.23 89.51 48.85Q90.99 52.48 93.67 54.47Q96.34 56.46 99.91 56.46ZM145.73 21.57L145.73 21.57Q148.46 21.57 151.23 21.90Q153.99 22.23 156.40 22.85Q158.80 23.48 160.47 24.31L160.47 24.31L160.47 33.76L159.99 33.76Q159.04 29.95 157.17 27.81Q155.30 25.67 152.86 24.78Q150.42 23.89 147.57 23.89L147.57 23.89Q143.41 23.89 140.56 25.85Q137.71 27.81 136.25 31.53Q134.79 35.24 134.79 40.47L134.79 40.47Q134.79 45.41 136.10 48.97Q137.41 52.54 139.96 54.50Q142.52 56.46 146.14 56.46L146.14 56.46Q148.05 56.46 149.77 55.84Q151.49 55.21 152.80 53.99Q154.11 52.78 154.64 50.99L154.64 50.99L154.70 43.86Q154.70 42.67 154.02 42.08Q153.34 41.48 152.09 41.48L152.09 41.48L151.26 41.48L151.26 40.95L166.53 40.95L166.53 41.48L165.76 41.48Q163.14 41.48 163.20 43.86L163.20 43.86L163.20 51.77Q161.95 53.37 159.34 55.00Q156.72 56.64 153.16 57.71Q149.59 58.78 145.37 58.78L145.37 58.78Q139.43 58.72 135.03 56.49Q130.63 54.26 128.20 50.10Q125.76 45.94 125.76 40.12L125.76 40.12Q125.76 34.29 128.20 30.16Q130.63 26.03 135.09 23.80Q139.55 21.57 145.73 21.57ZM180.38 22.35L180.38 22.35L186.74 22.35Q189.23 22.35 191.55 22.85Q193.87 23.36 195.71 24.46Q197.55 25.56 198.65 27.43Q199.75 29.30 199.75 32.09L199.75 32.09Q199.75 34.17 198.89 36.22Q198.03 38.27 196.22 39.76Q194.40 41.25 191.49 41.72L191.49 41.72Q193.22 42.26 194.79 43.80Q196.37 45.35 197.20 46.71L197.20 46.71Q197.49 47.19 198.09 48.23Q198.68 49.27 199.60 50.61Q200.53 51.94 201.54 53.37L201.54 53.37Q202.72 54.98 203.62 55.84Q204.51 56.70 205.46 57.06Q206.41 57.41 207.66 57.41L207.66 57.41L207.66 58.01L202.66 58.01Q199.46 58.01 197.23 57.53Q195.00 57.06 193.39 55.78Q191.79 54.50 190.36 52.30L190.36 52.30Q189.83 51.53 189.23 50.43Q188.64 49.33 188.04 48.20Q187.45 47.07 187.00 46.00Q186.56 44.93 186.38 44.22L186.38 44.22Q185.61 42.32 184.63 41.45Q183.65 40.59 182.81 40.59L182.81 40.59L182.81 40.06Q182.81 40.06 183.23 40.06Q183.65 40.06 184.30 40.06L184.30 40.06Q185.55 40.06 186.77 39.61Q187.99 39.17 189.00 37.89Q190.01 36.61 190.48 34.11L190.48 34.11Q190.60 33.76 190.69 33.10Q190.78 32.45 190.72 31.62L190.72 31.62Q190.60 29.42 189.92 28.11Q189.23 26.80 188.22 26.09Q187.21 25.38 186.17 25.11Q185.13 24.84 184.36 24.84L184.36 24.84Q183.23 24.78 182.31 24.81Q181.39 24.84 180.91 24.78L180.91 24.78Q180.85 24.78 180.73 24.16Q180.62 23.54 180.50 22.94Q180.38 22.35 180.38 22.35ZM172.35 22.35L180.97 22.35L180.97 58.01L172.35 58.01L172.35 22.35ZM172.41 54.26L172.53 54.26L172.77 58.01L168.49 58.01L168.49 57.41Q168.55 57.41 168.82 57.41Q169.09 57.41 169.20 57.41L169.20 57.41Q170.51 57.41 171.43 56.49Q172.35 55.57 172.41 54.26L172.41 54.26ZM172.77 22.35L172.53 26.03L172.41 26.03Q172.35 24.66 171.43 23.80Q170.51 22.94 169.26 22.94L169.26 22.94Q169.09 22.94 168.82 22.94Q168.55 22.94 168.49 22.94L168.49 22.94L168.49 22.35L172.77 22.35ZM180.56 58.01L180.85 54.26L180.97 54.26Q180.97 55.75 182.01 56.58Q183.05 57.41 184.18 57.41L184.18 57.41Q184.18 57.41 184.45 57.41Q184.72 57.41 184.84 57.41L184.84 57.41L184.84 58.01L180.56 58.01ZM211.16 22.35L219.72 22.35L219.72 58.01L211.16 58.01L211.16 22.35ZM219.60 55.63L233.63 55.63L235.00 58.01L219.60 58.01L219.60 55.63ZM219.60 39.17L231.61 39.17L231.61 41.54L219.60 41.54L219.60 39.17ZM219.60 22.35L234.28 22.35L234.28 24.72L219.60 24.72L219.60 22.35ZM236.90 47.07L237.43 47.07L235.17 58.01L224.89 58.01L226.74 55.63Q229.29 55.63 231.28 54.59Q233.27 53.55 234.70 51.62Q236.13 49.69 236.90 47.07L236.90 47.07ZM226.50 41.42L231.61 41.42L231.61 46.65L231.01 46.65L231.01 46.18Q231.01 44.22 229.80 42.88Q228.58 41.54 226.50 41.54L226.50 41.54L226.50 41.42ZM231.01 34.05L231.61 34.05L231.61 39.28L226.50 39.28L226.50 39.17Q228.58 39.11 229.80 37.77Q231.01 36.43 231.01 34.47L231.01 34.47L231.01 34.05ZM228.28 24.61L234.28 24.61L234.28 30.90L233.69 30.90L233.69 30.37Q233.69 27.75 232.29 26.27Q230.90 24.78 228.28 24.72L228.28 24.72L228.28 24.61ZM234.28 21.46L234.28 21.46L234.28 22.88L228.04 22.35Q229.77 22.35 231.67 22.02Q233.57 21.69 234.28 21.46ZM211.16 54.26L211.34 54.26L211.58 58.01L207.18 58.01L207.18 57.41Q207.18 57.41 207.54 57.41Q207.89 57.41 207.95 57.41L207.95 57.41Q209.26 57.41 210.21 56.49Q211.16 55.57 211.16 54.26L211.16 54.26ZM211.58 22.35L211.34 26.09L211.16 26.09Q211.16 24.72 210.21 23.83Q209.26 22.94 207.95 22.94L207.95 22.94Q207.89 22.94 207.54 22.94Q207.18 22.94 207.18 22.94L207.18 22.94L207.18 22.35L211.58 22.35ZM252.83 21.57L252.83 21.57Q254.01 21.57 255.71 21.69Q257.40 21.81 259.07 21.96Q260.73 22.11 262.01 22.32Q263.29 22.52 263.76 22.70L263.76 22.70L262.99 29.95L262.45 29.95Q262.45 27.22 260.55 25.62Q258.65 24.01 255.08 24.01L255.08 24.01Q252.23 24.01 250.48 25.26Q248.73 26.51 248.61 28.59L248.61 28.59Q248.49 29.66 248.99 30.52Q249.50 31.38 250.42 32.03Q251.34 32.69 252.47 33.34L252.47 33.34L261.80 39.11Q264.18 40.30 265.54 42.55Q266.91 44.81 266.73 48.02L266.73 48.02Q266.55 51.35 264.80 53.79Q263.05 56.22 259.99 57.50Q256.93 58.78 252.77 58.78L252.77 58.78Q250.21 58.78 248.01 58.36Q245.81 57.95 244.24 57.23Q242.66 56.52 241.83 55.63L241.83 55.63Q241.36 54.44 241.41 52.75Q241.47 51.05 241.95 49.36Q242.43 47.66 243.14 46.54L243.14 46.54L243.61 46.54Q243.44 49.21 244.56 51.47Q245.69 53.73 247.98 55.06Q250.27 56.40 253.42 56.40L253.42 56.40Q256.87 56.40 258.59 54.80Q260.31 53.19 260.31 50.99L260.31 50.99Q260.31 49.45 259.27 48.17Q258.23 46.89 255.86 45.64L255.86 45.64L247.42 40.30Q244.45 38.75 243.11 36.19Q241.77 33.64 242.13 30.61L242.13 30.61Q242.43 27.75 243.82 25.73Q245.22 23.71 247.54 22.64Q249.85 21.57 252.83 21.57ZM257.34 22.11L263.76 22.11L263.70 23.18L257.34 23.18L257.34 22.11ZM283.43 21.57L283.43 21.57Q284.62 21.57 286.32 21.69Q288.01 21.81 289.67 21.96Q291.34 22.11 292.62 22.32Q293.89 22.52 294.37 22.70L294.37 22.70L293.60 29.95L293.06 29.95Q293.06 27.22 291.16 25.62Q289.26 24.01 285.69 24.01L285.69 24.01Q282.84 24.01 281.09 25.26Q279.33 26.51 279.21 28.59L279.21 28.59Q279.10 29.66 279.60 30.52Q280.11 31.38 281.03 32.03Q281.95 32.69 283.08 33.34L283.08 33.34L292.41 39.11Q294.79 40.30 296.15 42.55Q297.52 44.81 297.34 48.02L297.34 48.02Q297.16 51.35 295.41 53.79Q293.66 56.22 290.60 57.50Q287.53 58.78 283.37 58.78L283.37 58.78Q280.82 58.78 278.62 58.36Q276.42 57.95 274.85 57.23Q273.27 56.52 272.44 55.63L272.44 55.63Q271.96 54.44 272.02 52.75Q272.08 51.05 272.56 49.36Q273.03 47.66 273.75 46.54L273.75 46.54L274.22 46.54Q274.04 49.21 275.17 51.47Q276.30 53.73 278.59 55.06Q280.88 56.40 284.03 56.40L284.03 56.40Q287.48 56.40 289.20 54.80Q290.92 53.19 290.92 50.99L290.92 50.99Q290.92 49.45 289.88 48.17Q288.84 46.89 286.46 45.64L286.46 45.64L278.03 40.30Q275.05 38.75 273.72 36.19Q272.38 33.64 272.74 30.61L272.74 30.61Q273.03 27.75 274.43 25.73Q275.83 23.71 278.14 22.64Q280.46 21.57 283.43 21.57ZM287.95 22.11L294.37 22.11L294.31 23.18L287.95 23.18L287.95 22.11ZM305.72 22.35L314.28 22.35L314.28 58.01L305.72 58.01L305.72 22.35ZM305.72 54.26L305.90 54.26L305.90 58.01L301.56 58.01L301.56 57.41Q301.56 57.41 301.92 57.41Q302.27 57.41 302.33 57.41L302.33 57.41Q303.70 57.41 304.71 56.49Q305.72 55.57 305.72 54.26L305.72 54.26ZM314.16 58.01L314.16 54.26L314.28 54.26Q314.34 55.57 315.32 56.49Q316.30 57.41 317.73 57.41L317.73 57.41Q317.73 57.41 318.05 57.41Q318.38 57.41 318.44 57.41L318.44 57.41L318.44 58.01L314.16 58.01ZM314.28 26.09L314.16 26.09L314.16 22.35L318.44 22.35L318.38 22.94Q318.38 22.94 318.08 22.94Q317.79 22.94 317.73 22.94L317.73 22.94Q316.30 22.94 315.32 23.83Q314.34 24.72 314.28 26.09L314.28 26.09ZM305.90 22.35L305.90 26.09L305.72 26.09Q305.72 24.72 304.71 23.83Q303.70 22.94 302.27 22.94L302.27 22.94Q302.27 22.94 301.92 22.94Q301.56 22.94 301.56 22.94L301.56 22.94L301.56 22.35L305.90 22.35ZM343.40 47.84L339.95 58.78L322.48 22.64L332.58 22.64L343.40 47.84ZM340.49 58.78L339.95 58.78L339.72 51.83L352.61 22.52L356.95 22.52L343.22 51.53Q343.10 51.83 342.69 52.75Q342.27 53.67 341.80 54.83Q341.32 55.99 340.93 57.06Q340.55 58.13 340.49 58.78L340.49 58.78ZM355.17 26.27L350.95 26.27Q351.60 24.66 350.80 23.77Q350.00 22.88 348.93 22.88L348.93 22.88L348.51 22.88L348.51 22.35L360.34 22.35L360.34 22.94Q360.34 22.94 360.10 22.94Q359.86 22.94 359.86 22.94L359.86 22.94Q358.68 22.94 357.37 23.68Q356.06 24.43 355.17 26.27L355.17 26.27ZM334.13 26.27L334.13 26.27L324.26 26.27Q323.37 24.43 322.09 23.68Q320.82 22.94 319.63 22.94L319.63 22.94Q319.63 22.94 319.42 22.94Q319.21 22.94 319.21 22.94L319.21 22.94L319.21 22.35L336.63 22.35L336.63 22.88L336.15 22.88Q335.20 22.88 334.37 23.77Q333.54 24.66 334.13 26.27ZM365.03 22.35L373.59 22.35L373.59 58.01L365.03 58.01L365.03 22.35ZM373.47 55.63L387.50 55.63L388.87 58.01L373.47 58.01L373.47 55.63ZM373.47 39.17L385.48 39.17L385.48 41.54L373.47 41.54L373.47 39.17ZM373.47 22.35L388.15 22.35L388.15 24.72L373.47 24.72L373.47 22.35ZM390.77 47.07L391.30 47.07L389.05 58.01L378.76 58.01L380.61 55.63Q383.16 55.63 385.15 54.59Q387.14 53.55 388.57 51.62Q390.00 49.69 390.77 47.07L390.77 47.07ZM380.37 41.42L385.48 41.42L385.48 46.65L384.89 46.65L384.89 46.18Q384.89 44.22 383.67 42.88Q382.45 41.54 380.37 41.54L380.37 41.54L380.37 41.42ZM384.89 34.05L385.48 34.05L385.48 39.28L380.37 39.28L380.37 39.17Q382.45 39.11 383.67 37.77Q384.89 36.43 384.89 34.47L384.89 34.47L384.89 34.05ZM382.15 24.61L388.15 24.61L388.15 30.90L387.56 30.90L387.56 30.37Q387.56 27.75 386.16 26.27Q384.77 24.78 382.15 24.72L382.15 24.72L382.15 24.61ZM388.15 21.46L388.15 21.46L388.15 22.88L381.91 22.35Q383.64 22.35 385.54 22.02Q387.44 21.69 388.15 21.46ZM365.03 54.26L365.21 54.26L365.45 58.01L361.05 58.01L361.05 57.41Q361.05 57.41 361.41 57.41Q361.77 57.41 361.83 57.41L361.83 57.41Q363.13 57.41 364.08 56.49Q365.03 55.57 365.03 54.26L365.03 54.26ZM365.45 22.35L365.21 26.09L365.03 26.09Q365.03 24.72 364.08 23.83Q363.13 22.94 361.83 22.94L361.83 22.94Q361.77 22.94 361.41 22.94Q361.05 22.94 361.05 22.94L361.05 22.94L361.05 22.35L365.45 22.35ZM422.80 16.58L431.72 16.58L431.72 58.01L422.80 58.01L422.80 16.58ZM408.24 16.34L446.28 16.34L446.28 18.84L408.24 18.84L408.24 16.34ZM439.62 18.66L446.28 18.66L446.28 25.67L445.68 25.62L445.68 24.96Q445.68 22.17 444.05 20.53Q442.42 18.90 439.62 18.84L439.62 18.84L439.62 18.66ZM446.28 15.27L446.28 15.27L446.28 17.00L439.03 16.34Q440.34 16.34 441.79 16.17Q443.25 15.99 444.50 15.75Q445.74 15.51 446.28 15.27ZM422.80 53.67L422.98 53.67L422.98 58.01L418.23 58.01L418.23 57.41Q418.23 57.41 418.61 57.41Q419.00 57.41 419.00 57.41L419.00 57.41Q420.54 57.41 421.64 56.31Q422.74 55.21 422.80 53.67L422.80 53.67ZM431.54 58.01L431.54 53.67L431.72 53.67Q431.78 55.21 432.88 56.31Q433.98 57.41 435.52 57.41L435.52 57.41Q435.52 57.41 435.91 57.41Q436.29 57.41 436.29 57.41L436.29 57.41L436.29 58.01L431.54 58.01ZM408.24 18.66L414.84 18.66L414.84 18.84Q412.11 18.90 410.47 20.53Q408.84 22.17 408.84 24.96L408.84 24.96L408.84 25.62L408.24 25.67L408.24 18.66ZM408.24 17.00L408.24 15.27Q408.84 15.51 410.05 15.75Q411.27 15.99 412.76 16.17Q414.24 16.34 415.49 16.34L415.49 16.34L408.24 17.00ZM452.22 22.35L460.78 22.35L460.78 44.75Q460.78 50.22 463.31 53.31Q465.83 56.40 470.35 56.40L470.35 56.40Q475.04 56.40 477.63 53.49Q480.21 50.58 480.27 45.41L480.27 45.41L480.27 22.35L484.20 22.35L484.20 45.05Q484.20 51.41 480.30 55.09Q476.41 58.78 469.28 58.78L469.28 58.78Q460.72 58.78 456.47 55.12Q452.22 51.47 452.22 45.11L452.22 45.11L452.22 22.35ZM448.66 22.35L452.34 22.35L452.34 25.44L452.22 25.44Q452.16 24.31 451.39 23.59Q450.62 22.88 449.49 22.88L449.49 22.88Q449.49 22.88 449.07 22.88Q448.66 22.88 448.66 22.88L448.66 22.88L448.66 22.35ZM460.66 22.35L464.29 22.35L464.29 22.88Q464.29 22.88 463.87 22.88Q463.45 22.88 463.45 22.88L463.45 22.88Q462.33 22.88 461.55 23.59Q460.78 24.31 460.78 25.44L460.78 25.44L460.66 25.44L460.66 22.35ZM476.77 22.35L480.39 22.35L480.39 25.44L480.27 25.44Q480.21 24.31 479.44 23.59Q478.67 22.88 477.60 22.88L477.60 22.88Q477.60 22.88 477.18 22.88Q476.77 22.88 476.77 22.88L476.77 22.88L476.77 22.35ZM484.08 22.35L487.70 22.35L487.70 22.88Q487.70 22.88 487.32 22.88Q486.93 22.88 486.93 22.88L486.93 22.88Q485.80 22.88 485.00 23.59Q484.20 24.31 484.20 25.44L484.20 25.44L484.08 25.44L484.08 22.35ZM502.80 22.52L511.42 22.52L511.42 58.01L502.80 58.01L502.80 22.52ZM489.90 22.29L524.31 22.29L524.31 24.66L489.90 24.66L489.90 22.29ZM518.31 24.49L524.31 24.49L524.31 30.79L523.72 30.79L523.72 30.25Q523.78 27.70 522.32 26.21Q520.87 24.72 518.31 24.66L518.31 24.66L518.31 24.49ZM524.31 21.40L524.31 21.40L524.31 22.88L518.07 22.29Q519.20 22.29 520.51 22.14Q521.82 21.99 522.89 21.78Q523.96 21.57 524.31 21.40ZM502.80 54.26L502.92 54.26L502.92 58.01L498.94 58.01L498.94 57.41Q498.94 57.41 499.26 57.41Q499.59 57.41 499.59 57.41L499.59 57.41Q500.90 57.41 501.82 56.49Q502.74 55.57 502.80 54.26L502.80 54.26ZM511.24 58.01L511.24 54.26L511.42 54.26Q511.42 55.57 512.37 56.49Q513.32 57.41 514.69 57.41L514.69 57.41Q514.69 57.41 515.01 57.41Q515.34 57.41 515.34 57.41L515.34 57.41L515.34 58.01L511.24 58.01ZM489.90 24.49L495.96 24.49L495.96 24.66Q493.35 24.72 491.95 26.21Q490.56 27.70 490.56 30.25L490.56 30.25L490.56 30.79L489.90 30.79L489.90 24.49ZM489.90 22.88L489.90 21.40Q490.44 21.51 491.48 21.75Q492.52 21.99 493.80 22.14Q495.07 22.29 496.14 22.29L496.14 22.29L489.90 22.88ZM547.43 21.57L547.43 21.57Q552.19 21.57 556.05 22.85Q559.91 24.13 562.71 26.57Q565.50 29.00 567.02 32.45Q568.53 35.90 568.53 40.24L568.53 40.24Q568.53 44.51 567.02 47.93Q565.50 51.35 562.71 53.79Q559.91 56.22 556.05 57.50Q552.19 58.78 547.43 58.78L547.43 58.78Q542.74 58.78 538.87 57.50Q535.01 56.22 532.22 53.79Q529.42 51.35 527.94 47.93Q526.45 44.51 526.45 40.24L526.45 40.24Q526.45 35.90 527.94 32.45Q529.42 29.00 532.22 26.57Q535.01 24.13 538.87 22.85Q542.74 21.57 547.43 21.57ZM547.43 56.46L547.43 56.46Q551.06 56.46 553.76 54.47Q556.47 52.48 557.92 48.85Q559.38 45.23 559.38 40.24L559.38 40.24Q559.38 35.18 557.92 31.53Q556.47 27.87 553.76 25.88Q551.06 23.89 547.43 23.89L547.43 23.89Q543.87 23.89 541.19 25.88Q538.52 27.87 537.03 31.53Q535.55 35.18 535.55 40.24L535.55 40.24Q535.55 45.23 537.03 48.85Q538.52 52.48 541.19 54.47Q543.87 56.46 547.43 56.46ZM584.16 22.35L584.16 22.35L590.52 22.35Q593.02 22.35 595.34 22.85Q597.65 23.36 599.50 24.46Q601.34 25.56 602.44 27.43Q603.54 29.30 603.54 32.09L603.54 32.09Q603.54 34.17 602.68 36.22Q601.81 38.27 600.00 39.76Q598.19 41.25 595.28 41.72L595.28 41.72Q597.00 42.26 598.57 43.80Q600.15 45.35 600.98 46.71L600.98 46.71Q601.28 47.19 601.87 48.23Q602.47 49.27 603.39 50.61Q604.31 51.94 605.32 53.37L605.32 53.37Q606.51 54.98 607.40 55.84Q608.29 56.70 609.24 57.06Q610.19 57.41 611.44 57.41L611.44 57.41L611.44 58.01L606.45 58.01Q603.24 58.01 601.01 57.53Q598.78 57.06 597.18 55.78Q595.57 54.50 594.15 52.30L594.15 52.30Q593.61 51.53 593.02 50.43Q592.42 49.33 591.83 48.20Q591.23 47.07 590.79 46.00Q590.34 44.93 590.16 44.22L590.16 44.22Q589.39 42.32 588.41 41.45Q587.43 40.59 586.60 40.59L586.60 40.59L586.60 40.06Q586.60 40.06 587.02 40.06Q587.43 40.06 588.08 40.06L588.08 40.06Q589.33 40.06 590.55 39.61Q591.77 39.17 592.78 37.89Q593.79 36.61 594.27 34.11L594.27 34.11Q594.38 33.76 594.47 33.10Q594.56 32.45 594.50 31.62L594.50 31.62Q594.38 29.42 593.70 28.11Q593.02 26.80 592.01 26.09Q591.00 25.38 589.96 25.11Q588.92 24.84 588.14 24.84L588.14 24.84Q587.02 24.78 586.09 24.81Q585.17 24.84 584.70 24.78L584.70 24.78Q584.64 24.78 584.52 24.16Q584.40 23.54 584.28 22.94Q584.16 22.35 584.16 22.35ZM576.14 22.35L584.76 22.35L584.76 58.01L576.14 58.01L576.14 22.35ZM576.20 54.26L576.32 54.26L576.55 58.01L572.28 58.01L572.28 57.41Q572.34 57.41 572.60 57.41Q572.87 57.41 572.99 57.41L572.99 57.41Q574.30 57.41 575.22 56.49Q576.14 55.57 576.20 54.26L576.20 54.26ZM576.55 22.35L576.32 26.03L576.20 26.03Q576.14 24.66 575.22 23.80Q574.30 22.94 573.05 22.94L573.05 22.94Q572.87 22.94 572.60 22.94Q572.34 22.94 572.28 22.94L572.28 22.94L572.28 22.35L576.55 22.35ZM584.34 58.01L584.64 54.26L584.76 54.26Q584.76 55.75 585.80 56.58Q586.84 57.41 587.97 57.41L587.97 57.41Q587.97 57.41 588.23 57.41Q588.50 57.41 588.62 57.41L588.62 57.41L588.62 58.01L584.34 58.01ZM615.13 22.35L623.68 22.35L623.68 58.01L615.13 58.01L615.13 22.35ZM615.13 54.26L615.30 54.26L615.30 58.01L610.97 58.01L610.97 57.41Q610.97 57.41 611.32 57.41Q611.68 57.41 611.74 57.41L611.74 57.41Q613.11 57.41 614.12 56.49Q615.13 55.57 615.13 54.26L615.13 54.26ZM623.57 58.01L623.57 54.26L623.68 54.26Q623.74 55.57 624.73 56.49Q625.71 57.41 627.13 57.41L627.13 57.41Q627.13 57.41 627.46 57.41Q627.79 57.41 627.85 57.41L627.85 57.41L627.85 58.01L623.57 58.01ZM623.68 26.09L623.57 26.09L623.57 22.35L627.85 22.35L627.79 22.94Q627.79 22.94 627.49 22.94Q627.19 22.94 627.13 22.94L627.13 22.94Q625.71 22.94 624.73 23.83Q623.74 24.72 623.68 26.09L623.68 26.09ZM615.30 22.35L615.30 26.09L615.13 26.09Q615.13 24.72 614.12 23.83Q613.11 22.94 611.68 22.94L611.68 22.94Q611.68 22.94 611.32 22.94Q610.97 22.94 610.97 22.94L610.97 22.94L610.97 22.35L615.30 22.35ZM645.32 31.62L648.82 20.74L666.42 57.71L656.37 57.71L645.32 31.62ZM633.37 54.08L637.65 54.08Q637.00 55.69 637.83 56.55Q638.66 57.41 639.67 57.41L639.67 57.41L640.15 57.41L640.15 58.01L628.26 58.01L628.26 57.41Q628.26 57.41 628.50 57.41Q628.74 57.41 628.74 57.41L628.74 57.41Q629.93 57.41 631.23 56.67Q632.54 55.93 633.37 54.08L633.37 54.08ZM648.35 20.74L648.82 20.74L648.94 27.87L636.05 57.83L631.65 57.83L645.56 27.93Q645.67 27.58 646.09 26.66Q646.51 25.73 646.98 24.58Q647.46 23.42 647.87 22.38Q648.29 21.34 648.35 20.74L648.35 20.74ZM638.84 46.36L654.00 46.36L654.00 48.68L638.84 48.68L638.84 46.36ZM654.89 54.08L654.89 54.08L664.69 54.08Q665.58 55.93 666.89 56.67Q668.20 57.41 669.39 57.41L669.39 57.41Q669.39 57.41 669.63 57.41Q669.86 57.41 669.86 57.41L669.86 57.41L669.86 58.01L652.39 58.01L652.39 57.41L652.87 57.41Q653.88 57.41 654.71 56.55Q655.54 55.69 654.89 54.08ZM674.14 22.35L682.70 22.35L682.70 58.01L674.14 58.01L674.14 22.35ZM682.58 55.63L696.55 55.63L697.98 58.01L682.58 58.01L682.58 55.63ZM699.88 47.07L700.47 47.07L698.15 58.01L687.87 58.01L689.71 55.63Q692.27 55.63 694.26 54.59Q696.25 53.55 697.68 51.62Q699.10 49.69 699.88 47.07L699.88 47.07ZM674.14 54.26L674.32 54.26L674.56 58.01L670.16 58.01L670.16 57.41Q670.16 57.41 670.52 57.41Q670.87 57.41 670.93 57.41L670.93 57.41Q672.24 57.41 673.19 56.49Q674.14 55.57 674.14 54.26L674.14 54.26ZM682.70 26.09L682.58 26.09L682.58 22.35L686.68 22.35L686.68 22.94Q686.62 22.94 686.30 22.94Q685.97 22.94 685.97 22.94L685.97 22.94Q684.66 22.94 683.71 23.83Q682.76 24.72 682.70 26.09L682.70 26.09ZM674.32 22.35L674.32 26.09L674.14 26.09Q674.14 24.72 673.16 23.83Q672.18 22.94 670.87 22.94L670.87 22.94Q670.81 22.94 670.49 22.94Q670.16 22.94 670.16 22.94L670.16 22.94L670.16 22.35L674.32 22.35Z" transform="translate(0, 0)"></path></g></svg></svg>